<?xml version="1.0" encoding="utf-8"?>
<!-- Generator: Adobe Illustrator 16.0.0, SVG Export Plug-In . SVG Version: 6.00 Build 0)  -->
<!DOCTYPE svg PUBLIC "-//W3C//DTD SVG 1.1//EN" "http://www.w3.org/Graphics/SVG/1.1/DTD/svg11.dtd">
<svg version="1.1" id="Layer_1" xmlns="http://www.w3.org/2000/svg" xmlns:xlink="http://www.w3.org/1999/xlink" x="0px" y="0px"
	 width="98.246px" height="100.001px" viewBox="0 0 98.246 100.001" enable-background="new 0 0 98.246 100.001"
	 xml:space="preserve">
<g>
	<path fill="#010101" d="M89.161,22.676c-2.339-1.332-4.988-2.008-7.878-2.008c-2.835,0-5.562,0.338-6.902,0.65
		c-0.271,0.062-0.545,0.095-0.811,0.095c-1.284,0-2.274-0.741-2.699-1.556v-6.728c0-2.837-1.976-6.858-11.375-9.895
		C53.031,1.147,44.488,0,35.435,0c-9.051,0-17.597,1.149-24.06,3.235C1.973,6.271,0,10.291,0,13.129v71.249
		c0,2.188,1.146,4.336,3.412,6.377c1.877,1.7,4.557,3.317,7.75,4.683c6.884,2.943,15.504,4.563,24.273,4.563
		s17.389-1.62,24.274-4.563c3.193-1.365,5.872-2.982,7.751-4.683c2.265-2.041,3.412-4.189,3.412-6.377V77.01
		c1.452-2.113,3.055-2.453,5.556-2.98c1.405-0.292,2.993-0.623,4.703-1.347c4.75-1.997,8.55-4.805,11.293-8.353
		c2.907-3.757,4.659-8.379,5.202-13.729l0.071-0.689c0.669-6.499,1.501-14.588-2.711-21.451
		C93.445,25.949,91.485,24.002,89.161,22.676z M14.901,15.015c3.549-2.517,11.408-4.267,20.534-4.267
		c9.127,0,16.984,1.75,20.533,4.267c1.271-0.68,1.916-1.351,1.916-1.886c0-0.502-0.667-1.177-1.785-1.807
		c-0.602-0.338-0.814-1.1-0.479-1.7c0.339-0.6,1.1-0.812,1.698-0.475c2.03,1.144,3.059,2.481,3.059,3.982
		c0,5.127-12.549,7.809-24.945,7.809c-12.396,0-24.945-2.683-24.945-7.809c0-1.501,1.032-2.844,3.068-3.987
		c0.602-0.339,1.362-0.125,1.698,0.477c0.338,0.603,0.124,1.361-0.477,1.7c-1.125,0.631-1.795,1.307-1.795,1.811
		C12.985,13.664,13.633,14.333,14.901,15.015z M70.871,34.645c1.354-1.577,2.94-2.75,4.706-3.273
		c0.919-0.272,4.021-0.719,5.703-0.719c2.373,0,3.875,0.877,5.197,3.029c2.465,4.016,1.892,9.473,1.338,14.744
		c-0.041,0.393-0.081,0.782-0.121,1.166c-0.716,7.018-3.979,11.411-10.277,13.824c-0.835,0.323-1.754,0.482-2.727,0.482
		c-1.749,0-3.139-0.509-3.819-0.891V34.645L70.871,34.645z"/>
</g>
</svg>
