<svg xmlns="http://www.w3.org/2000/svg" xmlns:xlink="http://www.w3.org/1999/xlink" version="1.1" x="0px" y="0px" width="100px" height="100px" viewBox="0 0 100 100" enable-background="new 0 0 100 100" xml:space="preserve">
<g id="logo">
	<path d="M64.882,84.621c0,3.612,1.552,6.54,3.464,6.54h7.324c1.913,0,3.463-2.928,3.463-6.54v-31.39c0-3.612-1.55-6.54-3.463-6.54   h-7.324c-1.912,0-3.464,2.928-3.464,6.54V84.621z"/>
	<path d="M93.249,68.927c0,8.218-5.087,14.88-11.36,14.88V54.045C88.162,54.045,93.249,60.708,93.249,68.927z"/>
	<path d="M35.117,84.621c0,3.611-1.551,6.54-3.463,6.54H24.33c-1.913,0-3.463-2.929-3.463-6.54V53.23   c0-3.611,1.55-6.539,3.463-6.539h7.324c1.912,0,3.463,2.928,3.463,6.539V84.621z"/>
	<path d="M6.751,68.926c0,8.219,5.086,14.881,11.36,14.881V54.045C11.837,54.045,6.751,60.708,6.751,68.926z"/>
	<path d="M6.378,68.154c-0.365-2.797-0.439-5.574-0.236-8.382c0.204-2.732,0.686-5.487,1.435-8.115   c0.743-2.639,1.777-5.176,3.01-7.593c2.481-4.831,5.902-9.124,9.949-12.665c4.059-3.531,8.745-6.306,13.758-8.169   c1.255-0.463,2.528-0.874,3.817-1.228c1.291-0.352,2.597-0.641,3.912-0.881c1.316-0.238,2.645-0.404,3.978-0.528   c0.667-0.061,1.335-0.105,2.005-0.135l1.001-0.031l1.048-0.012l0.968,0.009l1.006,0.031c0.669,0.029,1.338,0.074,2.005,0.135   c1.333,0.115,2.662,0.286,3.979,0.523c2.635,0.465,5.224,1.173,7.733,2.099c5.017,1.862,9.715,4.628,13.773,8.167   c8.123,7.055,13.637,17.266,14.403,28.43c0.22,3.005,0.106,6.073-0.352,9.116h4.817c0.806-2.97,1.32-6.035,1.516-9.153   c0.405-6.242-0.46-12.728-2.675-18.816c-2.216-6.091-5.762-11.803-10.393-16.624c-4.622-4.826-10.317-8.771-16.648-11.435   c-3.16-1.339-6.477-2.354-9.864-3.035c-1.695-0.336-3.407-0.597-5.129-0.767c-0.86-0.083-1.724-0.146-2.587-0.188   c-0.432-0.022-0.863-0.038-1.295-0.05l-0.648-0.013l-0.686-0.006l-0.575,0.003l-0.679,0.014c-0.439,0.012-0.866,0.027-1.299,0.048   c-0.863,0.043-1.726,0.106-2.587,0.188c-1.723,0.162-3.435,0.428-5.13,0.763c-1.697,0.333-3.372,0.761-5.02,1.267   c-1.649,0.504-3.27,1.09-4.85,1.76c-6.333,2.661-12.041,6.599-16.662,11.432C8.537,29.131,4.988,34.849,2.771,40.944   C1.651,43.988,0.897,47.138,0.45,50.3c-0.443,3.172-0.555,6.331-0.352,9.511c0.202,3.062,0.711,6.151,1.517,9.115H6.49   C6.451,68.669,6.412,68.412,6.378,68.154z"/>
</g>
<g id="slogon">
</g>
<g id="title">
</g>
</svg>