<svg xmlns="http://www.w3.org/2000/svg" xmlns:xlink="http://www.w3.org/1999/xlink" version="1.1" id="Layer_1" x="0px" y="0px" width="50px" height="50px" viewBox="0 0 50 50" enable-background="new 0 0 50 50" xml:space="preserve">
<g id="document">
	<g>
		<path d="M32.801,46.875H4.314V2.125h38.164v35.224c0,0.839-0.681,1.518-1.517,1.518c-0.839,0-1.518-0.679-1.518-1.518V5.159H7.348    v38.682h25.453c0.839,0,1.518,0.682,1.518,1.518C34.318,46.196,33.64,46.875,32.801,46.875z"/>
	</g>
	<g>
		<rect x="11.706" y="8.317" width="14.663" height="3.034"/>
	</g>
	<g>
		<rect x="11.706" y="14.965" width="19.972" height="3.034"/>
	</g>
	<g>
		<rect x="11.706" y="19.232" width="19.972" height="3.034"/>
	</g>
	<g>
		<rect x="11.706" y="23.499" width="19.972" height="3.035"/>
	</g>
	<g>
		<path d="M32.801,46.875c-0.838,0-1.517-0.679-1.517-1.517v-9.526h9.65c0.836,0,1.531,0.679,1.531,1.517    c0,0.839-0.667,1.518-1.503,1.518H34.32v6.492C34.318,46.196,33.64,46.875,32.801,46.875z"/>
	</g>
	<g>
		<path d="M32.839,46.866c-0.393,0-0.785-0.147-1.078-0.448c-0.589-0.595-0.584-1.558,0.013-2.144l8.085-7.998    c0.595-0.59,1.555-0.586,2.146,0.013c0.59,0.593,0.583,1.555-0.013,2.146l-8.085,7.996C33.61,46.721,33.225,46.866,32.839,46.866z    "/>
	</g>
</g>
</svg>